<?xml version="1.0" encoding="UTF-8"?>
<svg id="Layer_2" xmlns="http://www.w3.org/2000/svg" viewBox="0 0 778.21 116.63">
  <g id="Layer_1-2" data-name="Layer_1">
    <g>
      <g>
        <path class="cls-1" d="M16.79,70.87c.23,4.02,3.22,6.44,8.62,6.44s8.05-1.95,8.05-4.94c0-1.73-.92-3.56-5.17-4.48l-10.58-2.3c-10.58-2.3-15.75-6.9-15.75-17.02,0-11.96,10.23-18.86,24.03-18.86s22.65,7.82,22.65,19.43h-16.79c0-3.91-2.41-6.55-6.67-6.55-4.03,0-6.55,2.07-6.55,5.17,0,2.64,2.19,4.14,6.21,5.06l10.69,2.3c9.43,2.07,14.6,6.44,14.6,15.64,0,12.3-10.46,19.78-25.41,19.78S0,82.48,0,70.87h16.79Z"/>
        <path class="cls-1" d="M53.12,72.14c0-10.58,7.47-17.13,21.27-18.17l16.1-1.26v-.92c0-5.63-3.45-8.62-9.77-8.62-7.47,0-11.5,2.87-11.5,8.05h-14.72c0-12.99,10.69-21.5,27.13-21.5s26.1,9.31,26.1,25.75v33.57h-15.64l-1.15-7.59c-1.84,5.29-9.43,9.08-18.05,9.08-12.19,0-19.78-7.13-19.78-18.4ZM90.6,67.54v-3.1l-8.97.8c-7.7.69-10.46,2.41-10.46,6.09,0,4.14,2.53,6.09,7.93,6.09,6.78,0,11.5-3.33,11.5-9.89Z"/>
        <path class="cls-1" d="M116.59,89.04V2.35h17.71v86.69h-17.71Z"/>
        <path class="cls-1" d="M140.73,60.18c0-17.94,12.07-30.47,29.43-30.47s29.32,11.84,29.32,30.58v4.48l-41.74.23c1.04,7.59,5.29,11.15,13.11,11.15,6.67,0,11.38-2.42,12.65-6.55h16.21c-2.07,12.76-13.45,20.93-29.2,20.93-17.36,0-29.78-12.65-29.78-30.35ZM157.98,54.09h23.91c0-6.09-4.48-10-11.61-10s-10.92,3.1-12.3,10Z"/>
        <path class="cls-1" d="M218.8,70.87c.23,4.02,3.22,6.44,8.62,6.44s8.05-1.95,8.05-4.94c0-1.73-.92-3.56-5.17-4.48l-10.58-2.3c-10.58-2.3-15.75-6.9-15.75-17.02,0-11.96,10.23-18.86,24.03-18.86s22.65,7.82,22.65,19.43h-16.79c0-3.91-2.42-6.55-6.67-6.55-4.02,0-6.55,2.07-6.55,5.17,0,2.64,2.18,4.14,6.21,5.06l10.69,2.3c9.43,2.07,14.6,6.44,14.6,15.64,0,12.3-10.46,19.78-25.41,19.78s-24.72-8.05-24.72-19.66h16.79Z"/>
        <path class="cls-1" d="M283.88,29.71c17.02,0,28.28,9.31,29.43,24.38h-17.82c-1.27-5.75-4.83-8.51-10.92-8.51-7.47,0-12.3,5.63-12.3,14.49s4.48,14.6,12.07,14.6c6.21,0,10-2.87,11.15-8.51h17.82c-1.15,14.49-12.88,24.38-28.97,24.38-18.17,0-29.89-12.07-29.89-30.47s12.19-30.35,29.43-30.35Z"/>
        <path class="cls-1" d="M316.76,72.14c0-10.58,7.47-17.13,21.27-18.17l16.1-1.26v-.92c0-5.63-3.45-8.62-9.77-8.62-7.47,0-11.5,2.87-11.5,8.05h-14.72c0-12.99,10.69-21.5,27.13-21.5s26.1,9.31,26.1,25.75v33.57h-15.64l-1.15-7.59c-1.84,5.29-9.43,9.08-18.05,9.08-12.19,0-19.78-7.13-19.78-18.4ZM354.24,67.54v-3.1l-8.97.8c-7.7.69-10.46,2.41-10.46,6.09,0,4.14,2.53,6.09,7.93,6.09,6.78,0,11.5-3.33,11.5-9.89Z"/>
        <path class="cls-1" d="M380.23,31.55h16.67l.92,7.01c3.22-5.29,10.46-8.85,18.63-8.85,15.98,0,27.13,11.15,27.13,29.66s-9.89,31.27-27.02,31.27c-7.93,0-15.29-2.99-18.63-7.36v33.34h-17.71V31.55ZM412.07,74.67c8.39,0,13.68-5.86,13.68-14.37s-5.29-14.37-13.68-14.37-14.03,5.75-14.03,14.37,5.75,14.37,14.03,14.37Z"/>
        <path class="cls-1" d="M454.96,89.04v-42.77h-10.92v-14.72h10.92V13.73h17.71v17.82h10.92v14.72h-10.92v42.77h-17.71Z"/>
        <path class="cls-1" d="M543.61,31.55v57.49h-16.67l-1.15-6.44c-3.56,4.71-10.69,7.93-17.59,7.93-13.11,0-21.15-8.74-21.15-22.88V31.55h17.71v29.66c0,9.43,3.22,13.57,10.46,13.57s10.69-3.91,10.69-13.34v-29.89h17.71Z"/>
        <path class="cls-1" d="M592.7,48.22h-5.63c-10.12,0-16.21,4.48-16.21,15.87v24.95h-17.71V31.67h16.67l.92,8.51c2.41-5.63,7.47-9.43,15.18-9.43,2.07,0,4.37.23,6.78.8v16.67Z"/>
        <path class="cls-1" d="M593.05,60.18c0-17.94,12.07-30.47,29.43-30.47s29.32,11.84,29.32,30.58v4.48l-41.74.23c1.04,7.59,5.29,11.15,13.11,11.15,6.67,0,11.38-2.42,12.65-6.55h16.21c-2.07,12.76-13.45,20.93-29.2,20.93-17.36,0-29.78-12.65-29.78-30.35ZM610.29,54.09h23.91c0-6.09-4.48-10-11.61-10s-10.92,3.1-12.3,10Z"/>
      </g>
      <g>
        <path class="cls-1" d="M709.29,64.06c0,2.98,1.82,4.38,5.7,4.38,4.88,0,8.27-2.4,8.27-7.11v-2.23l-6.45.58c-5.54.5-7.52,1.74-7.52,4.38Z"/>
        <path class="cls-1" d="M771.85,57.92c3.51,0,6.36-2.85,6.36-6.36s-2.85-6.36-6.36-6.36h-4.69v-8.04h4.69c3.51,0,6.36-2.85,6.36-6.36s-2.85-6.36-6.36-6.36h-4.69v-3.69c0-5.36-4.35-9.71-9.71-9.71h-3.69v-4.69c0-3.51-2.85-6.36-6.36-6.36s-6.36,2.85-6.36,6.36v4.69h-8.04v-4.69c0-3.51-2.85-6.36-6.36-6.36s-6.36,2.85-6.36,6.36v4.69h-8.04v-4.69c0-3.51-2.85-6.36-6.36-6.36s-6.36,2.85-6.36,6.36v4.69h-3.69c-5.36,0-9.71,4.35-9.71,9.71v3.69h-4.69c-3.51,0-6.36,2.85-6.36,6.36s2.85,6.36,6.36,6.36h4.69v8.04h-4.69c-3.51,0-6.36,2.85-6.36,6.36s2.85,6.36,6.36,6.36h4.69v8.04h-4.69c-3.51,0-6.36,2.85-6.36,6.36s2.85,6.36,6.36,6.36h4.69v3.69c0,5.36,4.35,9.71,9.71,9.71h3.69v4.69c0,3.51,2.85,6.36,6.36,6.36s6.36-2.85,6.36-6.36v-4.69h8.04v4.69c0,3.51,2.85,6.36,6.36,6.36s6.36-2.85,6.36-6.36v-4.69h8.04v4.69c0,3.51,2.85,6.36,6.36,6.36s6.36-2.85,6.36-6.36v-4.69h3.69c5.36,0,9.71-4.35,9.71-9.71v-3.69h4.69c3.51,0,6.36-2.85,6.36-6.36s-2.85-6.36-6.36-6.36h-4.69v-8.04h4.69ZM735.57,76.79h-11.24l-.83-5.46c-1.32,3.8-6.78,6.53-12.98,6.53-8.76,0-14.22-5.13-14.22-13.23,0-7.61,5.37-12.32,15.29-13.06l11.57-.91v-.66c0-4.05-2.48-6.2-7.03-6.2-5.37,0-8.27,2.07-8.27,5.79h-10.58c0-9.34,7.69-15.46,19.51-15.46s18.76,6.7,18.76,18.52v24.14ZM756.83,76.79h-12.73v-33.66h12.73v33.66ZM750.38,36.68c-4.05,0-7.27-3.22-7.27-7.27s3.22-7.19,7.27-7.19,7.19,3.14,7.19,7.19-3.22,7.27-7.19,7.27Z"/>
      </g>
    </g>
  </g>
</svg>