<?xml version="1.0" encoding="UTF-8"?>
<svg id="Layer_1" xmlns="http://www.w3.org/2000/svg" viewBox="0 0 864.79 789.72">
  <ellipse cx="431.65" cy="407.15" rx="385.5" ry="382.58" style="fill: #b1e2e5;"/>
  <path d="M426.8,104.99c0-11.27,0-24.54,0-35.81,0-3.03-.14-2.8-3.15-4.21-6.26-5.13-12.35-11.17-13.95-19.37-3.8-17.49,11.39-33.44,28.97-30.33,17.74,2.67,26.59,23.1,17.14,38.14-3.3,5.5-8.7,9.14-14.26,12.61-1.23.33-.75,1.31-.75,2.02-.03,11.65-.02,25.3-.02,36.96h-13.99Z" style="fill: #429d81;"/>
  <path d="M89.42,660.24c1.42,2.71,2.83,4.81,3.65,7.11,1.73,4.85,5.35,7.17,10.05,8.23.58.13.88.3.98.83.1.52-.08,1.04-.58,1.19-1.36.4-2.5,1.23-3.76,1.78-5.35,2.37-7.69,5.13-8.64,10.77-.08.47.13.97-.38,1.35-.4.3-.69.95-1.07.98-.47.04-.45-.63-.58-1.08-1.97-6.92-5.81-12.07-13.21-13.79-.52-.12-.79-.43-.77-1.04.02-.61.32-.84.85-.96,6.62-1.54,10.73-5.57,12.18-12.27.09-.42.66-.71.86-1.14.19-.41.2-.9.4-1.96Z" style="fill: #cdeaf0;"/>
  <path d="M38.38,581.61c-1.71.39-3.09-.08-4.32-1.49-1.38-1.58-2.81-3.06-2.87-5.31-.1-3.38,3.4-6.79,6.99-7.16,3.23-.33,5.76.58,7.68,3.21,1.69,2.33,1.89,5.18.14,7.44-1.87,2.41-4.33,3.84-7.61,3.3Z" style="fill: #cdeaf0;"/>
  <path d="M12.76,311.87c-1.92-.24-3.96.68-5.48-1.37-1.37-1.86-2.36-3.71-2.08-6.1.35-3.01,3.51-6.23,6.52-6.53,3.51-.36,6.89,1.79,8.17,5.19,1.02,2.7-.42,7.03-2.88,8.46-1.36.8-2.89.13-4.26.35Z" style="fill: #cdeaf0;"/>
  <path d="M612.97,324.46c-1.67-1.91-.09-6.05.15-8.52.96-5.49.99-11,1.38-16.6,1.29-12.83.44-25.69.9-38.57.13-10.44-.42-20.82-1.27-31.16-.39-4.54-2.72-13.41,4.99-8.07,12.85,9.38,22.5,23.76,25.52,39.42,2.04,13.33.36,27.22-6.17,39.16-3,5.73-6.91,10.99-11.5,15.51-2.8,2.55-10.28,10.54-13.92,8.9l-.07-.06Z" style="fill: #429d81;"/>
  <path d="M487.74,422.78h-107.89c-.15-.76.5-1.91-1-2v-6c1.37-.01.96-1.07.98-1.79.05-1.5-.04-3,.03-4.49.07-1.58-.35-3.23.3-4.71h39.67c21.45,0,42.9,0,64.35.02,1.12,0,2.53-.53,3.28.35.51.59.15,1.88.3,2.84.2,1.28,1.27.64,1.98.79v10.99c-1.31,1.01-2.08,2.29-2,4Z" style="fill: #429d81;"/>
  <path d="M587.89,545.15c-.76-1.32-1.47-2.7-2.34-4.05-.86-1.25-1.88-2.47-2.05-3.83-.3-3.35.67-7.09,3.59-9.01,3.65-2.73,7.1-5.87,10.18-9.27,3.77-3.81,6.38-8.55,7.83-13.68.87-2.29,1.25-4.9,1.85-7.22.29-.87.69-1.42,1.15-1.47.8-.05,1.77,1.01,2.33,1.64,1.29,1.71,2.25,3.01,3.53,5.18,2.33,3.4,4.54,7.14,6.62,10.73,3.22,5.59,7.06,10.76,10.44,16.23.73,1.16,1.47,2.65,1.35,3.91-.33,2.79-3.33,4.42-5.1,6.38-7.47,7.19-14.67,14.77-22.2,21.87-2.76,2.39-5.26.08-6.9-2.33-1.8-2.5-3.97-4.8-5.83-7.31-1.93-2.95-2.49-5.04-4.38-7.63l-.08-.13Z" style="fill: #4ca17e;"/>
  <path d="M602.65,563.82c.18-1.2,1.3-2.31,2.23-3.21,7.17-7.05,14.35-14.22,21.57-21.23,5.34-5.35,7.37-6.56,11.97.43,3.23,4.43,7.4,8.09,11.17,12.02,1.85,1.97,5.77,4.89,2.98,7.61-1.28,1.15-2.99,1.9-4.13,3.2-2.52,2.79-4.66,5.84-5.77,9.62-1.28,7.64-.17,15.55-.67,23.25-.78,5.55-6.63-.32-9.01-1.66-3.02-2.04-5.86-4.16-8.57-6.58-6.01-5.22-11.72-10.8-17.31-16.45-1.69-1.98-4.55-4.16-4.49-6.88l.02-.14Z" style="fill: #74bb93;"/>
  <path d="M485.69,124.28c-.37.79-2.67.84-3.85.82-32.58,0-65.23.02-97.78-.06-2.96-.21-2.57-1.83-.74-3.61,13.14-11.16,30.63-18.12,47.99-17.66,5.06.08,10.23-.27,15.2.52,5.43,1.01,10.67,2.71,15.88,4.6,5.96,2.28,11.49,5.49,16.68,9.17,1.87,1.33,3.83,2.56,5.51,4.07.89.82,1.36,1.57,1.14,2.08l-.04.08Z" style="fill: #74bb93;"/>
  <path d="M608.81,496.34c-2.14,6.99-3.23,14.96-8.17,20.78-3.36,4.04-7.05,7.55-11.14,10.77-1.49,1.17-3.22,2.19-4.21,3.83-.83,1.28-.92,3.22-1.53,4.19-1.84,2.42-5.56-3.9-5.39-5.58-.17-1.51.21-3.14.55-4.64,1.06-4.38,1.57-8.65,2.66-12.94,1.35-7.12,2.42-14.51,3.85-21.65.84-12.15-.01-24.71-5.59-35.74-1.31-2.51-2.61-5.09-4.03-7.48-.68-1.2-1.11-2.29-.83-2.89.58-1.13,3.01-.23,4.13.32,5.68,2.9,10.93,6.82,15.09,11.58,5.69,6.53,10.52,13.97,12.37,22.56.77,3.24,1.57,6.5,1.89,9.8.23,2.28.94,4.81.38,6.95l-.03.14Z" style="fill: #429d81;"/>
  <path d="M639.09,179.87c-1.67-2.99-3.1-6.12-5.06-8.87-1.47-2.06-3.34-4.16-5.89-4.86-1.09-.3-2.19-.9-2.91-1.35-1.51-.96-4.48-1.05-4.39-2.75.1-1.83,2.94-1.45,4.56-2.06,4.93-1.88,8.82-4.74,10.2-10.15.07-.29.24-.6.45-.8,1.68-1.65.77-4.67,3.16-5.93.58,1.92,1.04,3.89,1.79,5.74.69,1.7,1.7,3.29,2.58,4.91,1.57,2.88,2.84,3.84,6.37,5.25,1.28.51,2.49,1.25,3.66,1.99.99.63,2.83.66,2.85,1.9.02,1.73-2.04,1.83-3.18,2-6.39.94-9.96,4.77-11.7,10.71-.48,1.64-1.06,3.25-2.49,4.3Z" style="fill: #cdeaf0;"/>
  <path d="M715.43,501.43c-3.4-.78-5.19,2.31-7.95,2.93-3.02.68-4.54,3.36-5.9,5.87-1.31,2.42-2.3,5.01-3.47,7.6-.63-.87-1.32-1.37-1.66-2.44-1.82-5.64-4.81-10.29-11.16-11.7-.87-.19-1.74-.68-2.45-1.24-.58-.45-.46-1.54.15-1.6,1.96-.19,3.47-1.28,5.17-1.98,1.15-.47,2.58-.39,3.3-1.61,1.01-1.74,2.81-3.01,3.08-5.19.39-3.11,2.86-5.51,3.02-8.71,0-.18.47-.54.57-.49.28.14.59.39.7.68.92,2.27,1.9,4.53,2.68,6.85,1.48,4.38,4.73,7.26,8.6,9.15,1.5.73,3.45,1.36,5.32,1.86Z" style="fill: #cdeaf0;"/>
  <path d="M489.74,407.79c-.71-.15-1.78.49-1.98-.79-.15-.96.21-2.24-.3-2.84-.75-.88-2.16-.35-3.28-.35-21.45-.02-42.9-.02-64.35-.02h-39.67c-.65,1.48-.22,3.13-.3,4.71-.07,1.49.02,2.99-.03,4.49-.02.72.39,1.78-.98,1.79v-11.99h110.89v5Z" style="fill: #368871;"/>
  <path d="M655.08,389.8c1.16.32,2.71-.72,3.61.68,1.07,1.68,2.21,3.41,2.78,5.28.43,1.43-1.51,2.21-2.17,3.48-.68,1.32-3.04,2.29-4.73,2.4-1.48.09-3.39-.9-4.48-2.02-.96-.99-1.35-2.8-1.43-4.28-.1-1.78,1.21-3.1,2.3-4.48,1.18-1.5,2.66-.9,4.12-1.05Z" style="fill: #cdeaf0;"/>
  <path d="M726.51,256.28c.01,4.19-1.16,5.57-4.74,5.61-4.37.04-6.3-1.37-6.25-4.6.06-3.66,2.65-6.41,6.02-6.39,3.45.02,4.96,1.65,4.97,5.39Z" style="fill: #cdeaf0;"/>
  <path d="M487.74,422.78c-.08-1.7.69-2.99,2-4v4h-2Z" style="fill: #368871;"/>
  <path d="M574.65,444.77c-.76-.15-1.91.5-2-1,.76.15,1.91-.5,2,1Z" style="fill: #429d81;"/>
  <path d="M610.62,499.73c-1.49-.09-.85-1.24-1-2,1.49.09.85,1.24,1,2Z" style="fill: #429d81;"/>
  <path d="M612.62,502.73c-.49.04-.93-.06-.79-.66.04-.16.52-.23.79-.34v1Z" style="fill: #429d81;"/>
  <path d="M611.62,500.73c-.69.03-1.02-.31-1-1,.69-.03,1.02.31,1,1Z" style="fill: #429d81;"/>
  <path d="M609.62,497.73c-.69.03-1.02-.31-1-1,.69-.03,1.02.31,1,1Z" style="fill: #429d81;"/>
  <path d="M372.62,670.87c1.05-1.17,3.6-1.3,5.4-1.28,37.58,0,75.17,0,112.75,0,2.36-.06,5.61.38,5.87,2.98.11,4.75-2.39,9.29-4.29,13.59-3.49,7.46-9.24,13.5-15.33,18.91-17.12,15.01-38.88,18.25-60.5,13.5-4.47-.74-8.71-2.4-12.64-4.65-5.88-3.22-11.76-6.83-16.47-11.8-6.08-6.45-11.19-13.85-14.1-22.3-.84-2.71-2.53-6.8-.78-8.86l.09-.1Z" style="fill: #368871;"/>
  <path d="M168.62,492.25c.78-.14,1.71.22,2.72.9,2.48,1.79,4.73,4.05,7.21,5.86,10.44,7.75,23.04,12.9,36.07,13.48,5.19-.18,10.46-1.21,15.5-2.45,5.93-1.75,7.43,3.98,9.57,8.1,3.33,6.31,6.75,12.65,10.58,18.65,2.25,3.84,5.03,7.36,7.82,10.78,1.54,1.83,1.81,4.21-.09,5.85-2.03,1.95-4.84,3.54-7.64,4.36-7.5,2.4-15.25,4.95-23.18,5.49-3.98.14-7.91,1.05-11.88,1.06-2.28-.02-4.54-.53-6.77-.75-18.85-1.3-37.25-8.58-52.58-19.53-1.9-1.58-4.59-3.21-6.21-4.88-.97-1.26.14-2.29,1.09-3.29,6.18-5.31,3.25-14.08,2.96-20.98-.03-1.11-.05-2.58.77-3.29.65-.61,1.75-.86,2.84-1.85.81-.73,1.49-1.74,2.15-2.63,1.91-2.71,4.01-5.39,5.35-8.45,1.17-2.03,1.24-5.47,3.6-6.42l.12-.03Z" style="fill: #74bb93;"/>
  <path d="M132.45,521.18c-10.92,3.98-19.86-7.05-23.9-15.99-3.46-7.67-3.05-16.41-.95-24.42,2.84-9.61,12.72-21.99,23.89-17.88,1.26.37,2.16.67,3.31,1.1,4.14,1.6,6.48,5.81,8.69,9.5,4.28,8.98,6.38,19.83,3.12,29.47-2.3,8.34-6.53,13.9-14,18.14l-.15.07Z" style="fill: #429d81;"/>
  <path d="M294.38,444.5c.86.33-.25,2.32-.89,3.23-2.28,3.31-4.36,7.31-5.88,10.94-4.83,11.45-5.02,24.22-3.43,36.37.67,7.73,2.57,15.14,3.92,22.78.57,4.54,4.75,13.86-1.69,15.53-2.11.03-3.2-2.78-5.4-4.35-2.44-1.84-5.3-3.1-7.55-5.19-3.77-3.41-7.08-7.27-9.54-11.67-2.49-3.9-4.85-8.22-5.1-12.89-.09-1.35.18-2.75.03-4.07-.25-2.14-1.43-3.56-.77-5.67,1.41-3.16,1.79-7.03,2.64-10.42,1.71-5.49,4.24-10.69,7.55-15.41,4.85-6.44,10.7-12.37,17.94-16.03,2.27-1.23,5.8-3.72,8.12-3.18l.08.04Z" style="fill: #429d81;"/>
  <path d="M258.05,491.9c3.7.22,1.62,5.08,2.25,7.44.5,4.72,2.99,8.83,5.38,12.83,2.51,4.45,5.94,8.38,9.8,11.73,3.32,2.75,9.02,4.6,9.57,9.45.23,4.92-16.06,14.54-20.39,17.21-1.73.95-4.14,2.32-6.01,2.26-.83-.15-.39-1.55-1.07-3.21-1.4-2.65-3.87-4.79-5.59-7.27-5.4-7.81-10.06-16.17-14.51-24.57-.87-1.7-1.67-3.43-2.52-5.12-.55-1.1-1.11-2.53-.78-3.63.3-1.09,1.31-1.84,2.26-2.43,2.55-1.45,5.12-2.97,7.53-4.66,3.09-2.41,6.44-4.38,9.46-6.71,1.24-1.14,2.6-3.17,4.46-3.32h.15Z" style="fill: #4ca17e;"/>
  <path d="M588.64,691.61c1.26.06,2.52-.29,3.57,1.01,1.32,1.64,2.45,3.24,2.43,5.45-.03,2.94-3.58,6.34-6.51,6.6-2.01.17-2.93-1.06-4.09-2.16-1.44-1.35-2.75-2.57-2.5-4.96.18-1.74.73-2.91,1.79-4.27,1.53-1.97,3.4-1.61,5.31-1.66Z" style="fill: #cdeaf0;"/>
  <path d="M588.64,544.7c1.49.09.85,1.24,1,2-1.49-.09-.85-1.24-1-2Z" style="fill: #429d81;"/>
  <path d="M586.64,541.7c1.49.09.85,1.24,1,2-1.49-.09-.85-1.24-1-2Z" style="fill: #429d81;"/>
  <path d="M585.64,539.71c1.49.09.85,1.24,1,2-1.49-.09-.85-1.24-1-2Z" style="fill: #429d81;"/>
  <path d="M584.64,538.71c.69-.03,1.02.31,1,1-.69.03-1.02-.31-1-1Z" style="fill: #429d81;"/>
  <path d="M590.64,547.7c.49-.04.93.06.79.66-.04.16-.52.23-.79.34v-1Z" style="fill: #429d81;"/>
  <path d="M255.97,553.7c-.03-.69.31-1.02,1-1,.03.69-.31,1.02-1,1Z" style="fill: #4ca17e;"/>
  <path d="M254.83,220.31c1.23.72,1.08,3.51.95,5.09-.58,6.12-.44,12.37-.41,18.52-.11,17.99-.04,36.01-.04,53.9-.03,7.22.92,14.41,2.06,21.49,1.01,6.32-1.81,7.02-6.65,3.41-19.23-14.3-29.72-38.86-25.51-62.62,2.06-11.21,7.2-21.78,14.99-30.19,2.74-2.89,10.62-11.17,14.52-9.67l.08.05Z" style="fill: #429d81;"/>
  <path d="M155.09,511.23c-.72-1.05-1.17-2.81-1.41-4.27-.69-4.9-1.49-10.02-2.35-14.9-1.4-4.67-1.4-9.43-2.2-14.22-1.04-7.47-2.45-14.56-3.04-21.97.68-5.25,10.74-3.54,14.26-2.41,6.73,1.49,11.5,7.32,11.88,14.12.73,5.68-.83,11.23-1.97,16.73-1.46,7.32-2.73,14.48-7.15,20.61-1.69,1.84-5.09,9.57-7.94,6.42l-.09-.11Z" style="fill: #429d81;"/>
  <path d="M240.19,399.81c.92.08.55.94.83,1.42,1.62,2.81,2.34,6,4.37,8.72,1.68,2.26,3.25,4.11,5.98,4.87.42.12.74.92,1.09.91,1.39-.03,2.12,1.35,3.41,1.46-.72,1.6-2.4,2.23-3.73,2.5-5.53,1.15-8.14,5.22-10.05,9.81-.65,1.57-2.94,2.41-2.14,4.62.04.11-.36.37-.56.56-.14-.28-.41-.56-.39-.83.08-1.05-.86-1.58-1.12-2.55-1.43-5.34-5.05-9.01-9.66-11.91-.98-.62-2.1-.17-2.68-.7-.76-.71-2.45-.93-2.34-1.3.3-1.01,1.33-1.37,2.54-1.7,5.35-1.48,8.8-5.28,11.25-10.11.84-1.66,2.19-3.08,2.03-5.16-.03-.45.58-.7,1.17-.61Z" style="fill: #cdeaf0;"/>
  <rect x="653.15" y="567.54" width="175" height="154" style="fill: #ddf0f1;"/>
  <path d="M378.85,420.78c1.49.09.85,1.24,1,2h-1v-2Z" style="fill: #368871;"/>
  <path d="M252.97,496.73c.04.49-.06.93-.66.79-.16-.04-.23-.52-.34-.79h1Z" style="fill: #429d81;"/>
  <path d="M253.97,495.73c.03.69-.31,1.02-1,1-.03-.69.31-1.02,1-1Z" style="fill: #429d81;"/>
  <path d="M239.2,71.46l-.09-.17C216.73,25.61,166.21-3.55,115.49.35,19.2,7.81-31.98,117.97,21.81,197.47c31.22,47.45,90.34,67.94,144.17,49.64,22.04-7.29,42.47-20.87,56.98-38.99,30.06-37.71,37.2-93.08,16.25-136.66Z" style="fill: #73ca95;"/>
  <path d="M828.29,67.61c-9.43-54.24-70.81-83.1-118.68-56.27-40.01,21.65-54.44,79.61-27.6,117,19.91,30.81,59.72,43.82,93.85,31.38,36.77-12.82,59.64-53.82,52.47-91.91l-.04-.2Z" style="fill: #73ca95;"/>
  <path d="M127.49,213.15c-18.19-.08-48.46-.33-62.21-13.06-6.65-6.4-6.77-16.46-2.7-24.42,6.44-12.81,19.01-21.88,32.02-27.1,31.99-12.46,84.5-4.53,96.51,32.19,7.98,32.21-42.44,32.21-63.42,32.39h-.2Z" style="fill: #ddf0f1;"/>
  <path d="M87.76,92.76c-.99-24.42,22.18-49.74,47.53-42.13,36.72,11.86,38.68,66.93,2.27,80.63-26.06,9.52-49.23-12.48-49.8-38.3v-.2Z" style="fill: #ddf0f1;"/>
  <path d="M742.76,131.55c-9.09-2.07-18.13-5.37-25.33-11.39-4.81-3.83-8.51-8.99-11.88-14.14-2.45-3.85-3.79-8.13-4.84-12.49-1.12-4.51-1.77-9.18-1.18-13.8,1.54-17.24,10.18-31.06,25.19-39.58,4.6-2.48,9.95-4.33,15.1-5.46,4.66-.82,9.76-.62,14.54-.65,4.19.02,8.3.99,12.2,2.47,4.81,1.83,9.6,3.83,13.63,7.04,1.5,1.12,3.09,2.56,4.7,3.22,2.81,1.54,6.36-1.91,8.75-1.16,3.81,1.71,2.62,14.25,2.89,18.18-.12,3.81.95,9.87-3.95,10.94-4.96.87-10.04-.61-14.92-1.83-1.83-.55-3.76-1.12-5.29-2.28-6.48-4.97,3.73-9.91-1.12-15.12-4.85-5.02-12.49-6.89-19.43-7.3-9.43-.87-18.63,2.77-25.79,8.78-16.9,13.69-13.92,41.92,3.54,53.66,13.84,9.97,32.06,9.19,44.5-2.69,2.56-2.48,5.16-5.1,6.95-8.2,2.21-4.2,5.8-10.92,11.37-7.38,2.7,1.9,2.67,5.83,1.82,8.77-4.07,13.09-15.52,23.39-28.2,28.05-3.89,1.22-7.69,2.65-11.76,2.81-3.73.05-7.69.22-11.32-.4l-.17-.03Z" style="fill: #ddf0f1;"/>
  <path d="M161.06,396.8c-1.6.59-2.54,1.98-3.6,3.15-3.39,3.76-7.36,6.83-11.39,9.84-.61.13-1.2-.09-1.87.31-3.86,2.31-8.14,3.8-12.49,4.51-2.32.38-4.5,1.55-7.02,1.25-2.45-.3-4.96-.14-7.44-.05-3.86.14-7.49-.61-11.14-1.9-1.53-.54-3.16-1.64-5.01-1.12-1.72-1.55-3.55-2.89-5.99-3-4.46-3.09-8.33-6.82-12.2-10.61-3.14-3.08-6.17-7.53-9.07-14.12-.62-1.4-1.83-2.55-1.72-4.25-1.73-3.89-2.13-8.12-2.93-12.23-.98-5.02.93-9.99.97-15.02,0-.38.8-.74.82-1.13.16-3.01,2.44-5.48,2.14-8.6,1.55-1.72,2.89-3.55,3-6,.83.12,1.27-.59,1.51-1.07,3.34-6.69,9.08-11.14,14.74-15.56,2.37-1.85,5.28-3.21,8.16-4.13,1.63-.52,3.25-1.02,4.66-1.91,1.39-.87,3.2.42,4.53-1.23.45-.56,2.2-.09,3.36-.09,4.65,0,9.3.07,13.95-.03,2.92-.06,5.56.9,8.26,1.74,4.13,1.3,8.25,2.61,11.78,5.26.21.16.65.02.98.02.39,1.58,1.45,2.16,3,2,.08,1.14,1.03,1.78,1.77,2.19,4.33,2.4,6.69,6.46,9.36,10.36,2.54,3.71,4.83,7.44,5.95,11.87.2.8,1.06,1.53.9,2.57.14,1.06,1.49,1.72,1,3,.38.98-.93,2.53,1,3,0,3.62-.06,7.24.01,10.86.15,7.17-1.49,13.91-4.71,20.27-.49.98-.13,1.91-.3,2.84-1.58.39-2.16,1.45-2,3-1.6.88-3.15,1.8-3,4Z" style="fill: #ddf0f1;"/>
  <path d="M435.3,485.32c15.03.02,30.29-.05,45.43.03,11.04-.13,23.4,2.56,28.1,13.58,4.58,10.59,1.6,22.53.82,33.61-1.47,22.16-7.46,34.3-31.6,34.49-16.66.08-33.58.09-50.17.28-10.41.05-20.28.09-30.53.17-17.1.31-32.55-1.92-36.72-21.33-1.5-6.77-1.87-13.79-2.56-20.69-.74-9.43-1.81-19.37,2.8-27.81,6.05-11.34,20.21-12.52,31.74-12.35,14.19,0,28.44,0,42.49,0h.2Z" style="fill: #62b3a4;"/>
  <path d="M538.69,350.83c2.99-.24,5.23-2.27,7.81-3.45,1.13-.52,2.13-.38,3.18-.54-.28,1.75-1.91,1.97-3.1,2.55-2.49,1.21-4.98,2.53-7.89,2.44v-1Z" style="fill: #cdeaf0;"/>
  <path d="M542.69,186.93c.04.49-.06.93-.66.79-.16-.04-.23-.52-.34-.79h1Z" style="fill: #11191e;"/>
  <path d="M549.68,346.83c-.03-.69.31-1.02,1-1,.03.69-.31,1.02-1,1Z" style="fill: #cdeaf0;"/>
  <path d="M618.8,271.48c.08-20.14.12-40.73-5.17-60.31-11.61-46.21-53.99-82.65-101.48-86.7-25.68-2.03-51.61-.64-77.37-1.04-12.83,0-25.69-.01-38.48-.05-14.88.07-29.28-.39-44.09,1.73-47.25,5.41-87.72,42.79-98.29,88.86-2.9,12.24-3.03,24.82-3.06,37.38.66,25.75-2.61,52.93,5.46,77.46,16.3,48.59,61.27,76.85,111.91,74.48,35.75.07,71.58.03,107.35.04,21.17-.3,42.61,1.38,63.05-4.41,38.14-10.66,70.07-43.73,77.28-82.96,2.73-14.56,2.65-29.5,2.89-44.28v-.2Z" style="fill: #90cfaf;"/>
  <rect x="282.15" y="178.54" width="305" height="180" rx="77.5" ry="77.5" style="fill: #0c303b;"/>
  <path d="M189.11,375.33c4.59-26.79-8.45-54.63-30.87-69.45-36.81-24.95-86.6-7.73-102.77,32.93-5.87,14.22-5.42,30.6-2.81,45.44,1.75,7.57,6,13.74,10.63,20.08,11.18,15.4,27.84,26.35,46.57,29.71,13.2,2.14,9.66,14.01,13.18,23.37,4.84,10.36,18.69,1.52,24.18,29.39,3.63,25.18-12.47,27.81-12.84,40.31,2.42,16.82,23.6,14.6,21.16-6.19-2.41-22.95-7.2-44.93-9.79-67.87-.98-12.23-7.07-20.34,7.24-26.59,18.93-10.32,32.82-29.59,36.09-50.95l.03-.19ZM160.58,396.64c-15.67,20.64-48,25.54-68.96,10.32-13.68-9.63-22.62-26.24-22.48-42.94.41-18.97,11.44-37.39,28.6-45.7,10.07-5.06,21.66-5.5,32.62-3.84,37.44,6.45,53.24,52.84,30.34,82.02l-.12.14Z" style="fill: #13343f;"/>
  <path d="M401.15,314.54c8,5,21,11,32,11s21-2,32-11" style="fill: none; stroke: #fff; stroke-linecap: round; stroke-miterlimit: 10; stroke-width: 11px;"/>
  <rect x="350.15" y="231.54" width="37" height="59" rx="18.5" ry="18.5" style="fill: #94eeb6;"/>
  <rect x="480.15" y="231.54" width="37" height="59" rx="18.5" ry="18.5" style="fill: #94eeb6;"/>
  <path d="M586.35,482.13c-.4-37.04-28.98-60.25-64.91-59.32-58.3-.09-116.82-.15-175.13,0-8.9.18-17.92,1.01-26.28,4.12-17.59,6.19-31.04,20.88-35.5,39.18-4.23,16.46-1,33.95,1.98,50.37,4.88,26.04,9.88,52.22,14.81,78.29,2.35,12.15,4.22,24.67,9.18,36.09,9.26,21.93,30.6,37.28,54.01,40.55,3.65.58,7.35.9,11.07,1.07,36.65.47,73.35.06,109.99.17,8.86-.08,17.82-.53,26.4-2.74,17.51-4.49,33.52-16.3,42.49-32.04,7.55-13.32,9.81-28.84,12.88-43.65,4.93-28.29,10.6-56.48,15.8-84.7,1.64-8.97,3.26-18.04,3.19-27.18v-.19ZM511.31,512.02c-.03,7.32-1.18,14.62-1.79,21.91-1.67,25.35-10.93,33.82-36.3,33.17-21.42-.13-43.18.35-64.47.27-12.71-.24-28.16,2.14-39.01-5.7-9.67-7.29-10.1-20.6-11.24-31.67-.72-8.81-2.11-18.3.16-26.77,4.45-17.14,21.94-18.3,37-17.92,9.96.01,19.92,0,29.87,0,16.41,0,32.79,0,49.18,0,20.01-.67,36.32,3.08,36.6,26.51v.19Z" style="fill: #90cfaf;"/>
  <path d="M648.29,734.8c-5.72-4.33-7.4-13.03-7.59-20.38-.43-43.58.05-87.19-.12-130.78-.28-19.72,5.54-29.08,26.43-28.98,48.69-.11,97.46.11,146.14-.12,14.07-.17,28.98-.05,32.21,16.73.96,4.6,1.04,9.88,1.08,14.73-.59,45.71,1.1,91.67-.72,137.29-1.11,8.76-8.38,15.26-17.18,15.95-56.35.59-112.98,1-169.31-.17-4.02-.52-8-1.85-10.82-4.18l-.12-.1ZM680.83,654.06c-4.87,3.55-4.22,10.99-4.32,18.32,0,7.19-.02,14.4.02,21.57-.23,14.34,7.17,14.91,19.73,14.62,6.61-.1,11.98-2,12.8-9.43.88-6.49.36-13.4.49-19.98-.1-5.83.36-12.05-.66-17.37-1.05-8.26-7.08-10.17-14.3-10.15-4.48-.04-10.1-.02-13.65,2.33l-.12.09ZM761.43,705.04c4.17-5.32,2.11-14.23,2.56-20.94-.03-12.67-.02-25.35-.02-38.02-.15-7.52.84-16.1-6.59-19.12-6.02-1.97-20.24-2.53-24.46,3.02-2.51,3.01-2.87,8.21-2.92,12.4,0,16.22,0,32.48-.04,48.71.03,2.74.09,5.68.64,8.3,1.35,8.38,8.87,9.36,17,9.22,4.47-.02,10.81-.23,13.74-3.46l.1-.11ZM811.98,590.87c-3.68-2.38-8.5-2.19-12.78-2.2-8.89.26-14.38,2.21-15.49,11.07-1.08,30.23-.07,60.66-.4,90.92.06,6.4.47,15.52,7.83,17.13,6.76,1.28,17.33,1.65,21.93-3.16,1.56-1.65,2.46-3.93,2.92-6.54,1.39-31.37.23-63,.53-94.45-.24-4.47-.85-10.15-4.42-12.69l-.11-.08Z" style="fill: #13343f;"/>
  <rect x="725.15" y="327.54" width="116" height="96" style="fill: #ddf0f1;"/>
  <path d="M816.04,447.08c-15.9,5.78-33.75,7.69-50.27,3.49-19.06-5.39-37.08-17.11-47.71-34.03-12.43-19.11-15.59-44.03-8.99-65.78,5.83-19.32,19.85-35.81,37.6-45.27,28.04-15.96,66.24-12.45,90.32,9.22,4.58,4.29,9.09,8.71,13.04,13.58,3.24,4,5.48,8.26,7.94,13.69,2.78,6.02,4.98,12.1,5.88,18.67,5.46,36.6-13.28,71.94-47.64,86.37l-.17.07ZM743.69,338.06c-7.45,4.73,2.77,9.91,6.22,13.24,6.18,5,12.25,9.99,18.51,14.82,5.18,3.74,9.96,9.58,16.56,10.45,2.96.21,5.65-1.5,7.92-3.28,9.31-7.12,18.28-15.2,27.78-22.13,2.9-2.48,7.85-4.97,7.96-9.13-.33-4.63-6.77-5.69-10.72-5.6-22.04-.02-44.24-.04-66.25-.02-2.67,0-5.54.32-7.83,1.56l-.16.09ZM745.59,412.36c2.31,1.23,5.02,1.59,7.67,1.6,21.1.02,42.38.05,63.48.02,3.57,0,7.18-.79,9.91-3.16,4.49-3.72,7.08-9.2,6.94-15.04.04-13.12.01-26.37,0-39.46-.03-1.93-.17-4.99-1.71-5.81-2.95-1.65-12.35,8.59-15.21,10.67-7.5,6.44-15.13,12.87-22.93,19.01-9.4,7.1-15.42,1.74-22.79-4.82-8.03-6.48-15.75-13.37-23.9-19.73-2.68-1.87-5.27-5.33-8.51-5.82-1.89.02-2.15,3.14-2.21,4.92-.08,13.68-.02,27.48,0,41.1.05,2.72.43,5.47,1.54,7.91,1.64,3.34,4.41,6.67,7.58,8.51l.16.08Z" style="fill: #73ca95;"/>
</svg>