<?xml version="1.0" encoding="UTF-8"?>
<svg id="Layer_1" xmlns="http://www.w3.org/2000/svg" viewBox="0 0 662.61 668.52">
  <line x1="288.96" y1="96.23" x2="342.3" y2="268.23" style="fill: none; stroke: #c8ede2; stroke-miterlimit: 10; stroke-width: 11px;"/>
  <line x1="91.63" y1="321.56" x2="276.96" y2="337.56" style="fill: none; stroke: #c8ede2; stroke-miterlimit: 10; stroke-width: 11px;"/>
  <line x1="251.63" y1="569.56" x2="323.63" y2="406.9" style="fill: none; stroke: #c8ede2; stroke-miterlimit: 10; stroke-width: 11px;"/>
  <line x1="552.96" y1="496.23" x2="436.96" y2="402.9" style="fill: none; stroke: #c8ede2; stroke-miterlimit: 10; stroke-width: 11px;"/>
  <line x1="580.96" y1="194.9" x2="434.3" y2="265.56" style="fill: none; stroke: #c8ede2; stroke-miterlimit: 10; stroke-width: 11px;"/>
  <path d="M15.18,268.04c-8.38,0-15.18,6.81-15.18,15.18v68.33c0,8.38,6.81,15.18,15.18,15.18h22.78v18.98c0,1.45.81,2.75,2.09,3.39,1.28.64,2.82.5,3.99-.36l29.35-22.02h32.91c8.38,0,15.18-6.81,15.18-15.18v-68.33c0-8.38-6.81-15.18-15.18-15.18H15.18Z" style="fill: #24725c;"/>
  <path d="M197.72,547.04c-8.38,0-15.18,6.81-15.18,15.18v91.11c0,8.38,6.81,15.18,15.18,15.18h68.33c8.38,0,15.18-6.81,15.18-15.18v-91.11c0-8.38-6.81-15.18-15.18-15.18h-68.33ZM224.29,615.37h15.18c10.49,0,18.98,8.49,18.98,18.98,0,2.09-1.71,3.8-3.8,3.8h-45.55c-2.09,0-3.8-1.71-3.8-3.8,0-10.49,8.49-18.98,18.98-18.98ZM216.7,592.59c0-8.39,6.8-15.18,15.18-15.18s15.18,6.8,15.18,15.18-6.8,15.18-15.18,15.18-15.18-6.8-15.18-15.18ZM296.42,566.02c0-2.09-1.71-3.8-3.8-3.8s-3.8,1.71-3.8,3.8v15.18c0,2.09,1.71,3.8,3.8,3.8s3.8-1.71,3.8-3.8v-15.18ZM292.63,592.59c-2.09,0-3.8,1.71-3.8,3.8v15.18c0,2.09,1.71,3.8,3.8,3.8s3.8-1.71,3.8-3.8v-15.18c0-2.09-1.71-3.8-3.8-3.8ZM296.42,626.76c0-2.09-1.71-3.8-3.8-3.8s-3.8,1.71-3.8,3.8v15.18c0,2.09,1.71,3.8,3.8,3.8s3.8-1.71,3.8-3.8v-15.18Z" style="fill: #24725c;"/>
  <path d="M534.87,476.4c-6.29,0-11.39,5.1-11.39,11.39,0,3.58,1.68,6.95,4.56,9.11l51.63,38.72c2.7,2.02,6.41,2.02,9.11,0l51.63-38.72c2.87-2.16,4.56-5.53,4.56-9.11,0-6.29-5.1-11.39-11.39-11.39h-98.7ZM523.48,502.97v49.35c0,8.38,6.81,15.18,15.18,15.18h91.11c8.38,0,15.18-6.81,15.18-15.18v-49.35l-51.63,38.72c-5.41,4.06-12.81,4.06-18.22,0l-51.63-38.72Z" style="fill: #24725c;"/>
  <path d="M579.1,113.15c0,16.77,13.6,30.37,30.37,30.37s30.37-13.6,30.37-30.37-13.6-30.37-30.37-30.37-30.37,13.6-30.37,30.37ZM601.52,160.65l4.41,7.36-7.9,29.4-8.54-34.85c-.47-1.92-2.33-3.18-4.25-2.68-16.61,4.15-28.92,19.19-28.92,37.11,0,4.03,3.27,7.28,7.28,7.28h91.73c4.03,0,7.28-3.27,7.28-7.28,0-17.91-12.31-32.96-28.92-37.11-1.92-.47-3.77.78-4.25,2.68l-8.54,34.85-7.9-29.4,4.41-7.36c1.52-2.54-.31-5.74-3.25-5.74h-9.37c-2.94,0-4.77,3.23-3.25,5.74h-.02Z" style="fill: #24725c;"/>
  <path d="M253.41,11.39h34.17c1.04,0,1.9.85,1.9,1.9v9.49h-37.96v-9.49c0-1.04.85-1.9,1.9-1.9ZM240.12,13.29v9.49h-15.18c-8.38,0-15.18,6.81-15.18,15.18v22.78h121.48v-22.78c0-8.38-6.81-15.18-15.18-15.18h-15.18v-9.49c0-7.33-5.96-13.29-13.29-13.29h-34.17c-7.33,0-13.29,5.96-13.29,13.29ZM331.23,68.33h-45.55v7.59c0,4.2-3.39,7.59-7.59,7.59h-15.18c-4.2,0-7.59-3.39-7.59-7.59v-7.59h-45.55v30.37c0,8.38,6.81,15.18,15.18,15.18h91.11c8.38,0,15.18-6.81,15.18-15.18v-30.37Z" style="fill: #24725c;"/>
  <g>
    <path d="M319.91,360.15c0,6.87,4.2,10.12,13.17,10.12,11.26,0,19.09-5.54,19.09-16.42v-5.15l-14.89,1.34c-12.79,1.14-17.37,4.01-17.37,10.12Z" style="fill: #36b593;"/>
    <path d="M464.4,345.99c8.11,0,14.69-6.58,14.69-14.69s-6.58-14.69-14.69-14.69h-10.82v-18.56h10.82c8.11,0,14.69-6.58,14.69-14.69s-6.58-14.69-14.69-14.69h-10.82v-8.51c0-12.38-10.03-22.41-22.41-22.41h-8.51v-10.82c0-8.11-6.58-14.69-14.69-14.69s-14.69,6.58-14.69,14.69v10.82h-18.56v-10.82c0-8.11-6.58-14.69-14.69-14.69s-14.69,6.58-14.69,14.69v10.82h-18.56v-10.82c0-8.11-6.58-14.69-14.69-14.69s-14.69,6.58-14.69,14.69v10.82h-8.51c-12.38,0-22.42,10.03-22.42,22.41v8.51h-10.82c-8.11,0-14.69,6.58-14.69,14.69s6.58,14.69,14.69,14.69h10.82v18.56h-10.82c-8.11,0-14.69,6.58-14.69,14.69s6.58,14.69,14.69,14.69h10.82v18.56h-10.82c-8.11,0-14.69,6.58-14.69,14.69s6.58,14.69,14.69,14.69h10.82v8.51c0,12.38,10.04,22.41,22.42,22.41h8.51v10.82c0,8.11,6.58,14.69,14.69,14.69s14.69-6.58,14.69-14.69v-10.82h18.56v10.82c0,8.11,6.58,14.69,14.69,14.69s14.69-6.58,14.69-14.69v-10.82h18.56v10.82c0,8.11,6.58,14.69,14.69,14.69s14.69-6.58,14.69-14.69v-10.82h8.51c12.38,0,22.41-10.04,22.41-22.41v-8.51h10.82c8.11,0,14.69-6.58,14.69-14.69s-6.58-14.69-14.69-14.69h-10.82v-18.56h10.82ZM380.62,389.55h-25.96l-1.91-12.6c-3.05,8.78-15.65,15.08-29.97,15.08-20.23,0-32.83-11.84-32.83-30.54,0-17.56,12.41-28.44,35.32-30.16l26.72-2.1v-1.53c0-9.35-5.73-14.32-16.23-14.32-12.41,0-19.09,4.77-19.09,13.36h-24.43c0-21.57,17.75-35.7,45.05-35.7s43.33,15.46,43.33,42.76v55.74ZM429.7,389.55h-29.4v-77.74h29.4v77.74ZM414.81,296.93c-9.35,0-16.8-7.45-16.8-16.8s7.44-16.61,16.8-16.61,16.61,7.25,16.61,16.61-7.45,16.8-16.61,16.8Z" style="fill: #36b593;"/>
  </g>
</svg>